<svg width="30" height="30" viewBox="0 0 30 30" fill="none" xmlns="http://www.w3.org/2000/svg">
<mask id="mask0_19_422" style="mask-type:luminance" maskUnits="userSpaceOnUse" x="8" y="3" width="14" height="27">
<path d="M8.60471 3.48355H21.5907V30H8.60471V3.48355Z" fill="white"/>
</mask>
<g mask="url(#mask0_19_422)">
<path d="M21.3262 29.9446H8.81513C8.7024 29.9446 8.61072 29.757 8.61072 29.5233V27.1334C8.61072 23.1533 10.1919 19.9145 12.1368 19.9145H18.006C19.9494 19.9145 21.5321 23.1533 21.5321 27.1334V29.5233C21.5321 29.757 21.4404 29.9446 21.3262 29.9446ZM15.0706 18.7887C13.0085 18.7887 11.3312 15.3531 11.3312 11.1361C11.3312 6.91614 13.0085 3.48355 15.0706 3.48355C17.1328 3.48355 18.8101 6.91614 18.8101 11.1361C18.8101 15.3531 17.1328 18.7887 15.0706 18.7887Z" fill="white"/>
</g>
<mask id="mask1_19_422" style="mask-type:luminance" maskUnits="userSpaceOnUse" x="0" y="0" width="13" height="26">
<path d="M0 0H12.986V25.8621H0V0Z" fill="white"/>
</mask>
<g mask="url(#mask1_19_422)">
<path d="M12.9138 26.1404H0.213396C0.0991678 26.1404 0.00598145 25.9549 0.00598145 25.7244V23.3627C0.00598145 19.4325 1.61119 16.2326 3.58464 16.2326H9.54105C11.516 16.2326 13.1212 19.4325 13.1212 23.3627V25.7244C13.1212 25.9549 13.028 26.1404 12.9138 26.1404ZM6.5636 15.1191C4.46991 15.1191 2.76851 11.7277 2.76851 7.56106C2.76851 3.3914 4.46991 0 6.5636 0C8.65578 0 10.3587 3.3914 10.3587 7.56106C10.3587 11.7277 8.65578 15.1191 6.5636 15.1191Z" fill="white"/>
</g>
<mask id="mask2_19_422" style="mask-type:luminance" maskUnits="userSpaceOnUse" x="17" y="0" width="13" height="25">
<path d="M17.014 0H30V24.8276H17.014V0Z" fill="white"/>
</mask>
<g mask="url(#mask2_19_422)">
<path d="M29.9278 25.0948H17.2289C17.1132 25.0948 17.02 24.9167 17.02 24.6954V22.4282C17.02 18.6552 18.6267 15.5833 20.6002 15.5833H26.5566C28.53 15.5833 30.1368 18.6552 30.1368 22.4282V24.6954C30.1368 24.9167 30.0436 25.0948 29.9278 25.0948ZM23.5776 14.5144C21.4855 14.5144 19.7825 11.2586 19.7825 7.25862C19.7825 3.25575 21.4855 0 23.5776 0C25.6713 0 27.3742 3.25575 27.3742 7.25862C27.3742 11.2586 25.6713 14.5144 23.5776 14.5144Z" fill="white"/>
</g>
</svg>
