<svg width="30" height="30" viewBox="0 0 30 30" fill="none" xmlns="http://www.w3.org/2000/svg">
<mask id="mask0_19_251" style="mask-type:luminance" maskUnits="userSpaceOnUse" x="0" y="0" width="30" height="30">
<path d="M0 0H30V30H0V0Z" fill="white"/>
</mask>
<g mask="url(#mask0_19_251)">
<path d="M27.9697 15.7531H26.7744V28.8094C26.7656 28.9844 26.7246 29.1532 26.6514 29.3156C26.5781 29.475 26.4785 29.6157 26.3555 29.7344C26.2295 29.8531 26.0889 29.9406 25.9307 30C25.7754 30.0594 25.6113 30.0844 25.4443 30.075H18.3955V21.175C18.3955 21.05 18.3721 20.9313 18.3281 20.8188C18.2842 20.7063 18.2227 20.6031 18.1406 20.5156C18.0586 20.4313 17.9649 20.3625 17.8565 20.3156C17.751 20.2688 17.6397 20.2438 17.5225 20.2438H12.4072C12.293 20.2438 12.1816 20.2688 12.0733 20.3156C11.9678 20.3625 11.874 20.4282 11.792 20.5156C11.71 20.6031 11.6484 20.7031 11.6016 20.8188C11.5576 20.9313 11.5371 21.05 11.5371 21.175V30.075H4.48536C4.31837 30.0844 4.15724 30.0594 4.00196 30C3.84376 29.9406 3.70313 29.8531 3.58009 29.7344C3.45411 29.6157 3.35743 29.4781 3.28419 29.3188C3.21095 29.1594 3.16993 28.9907 3.16114 28.8125V15.7531H1.9629C0.632821 15.7531 -0.0849514 14.4188 0.785166 13.5625L13.9014 0.628149C14.0684 0.478149 14.2529 0.362524 14.4551 0.284399C14.6602 0.206274 14.8682 0.165649 15.085 0.165649C15.3018 0.165649 15.5127 0.206274 15.7149 0.287524C15.9199 0.368774 16.1045 0.481274 16.2686 0.631274C20.5635 4.94377 24.8584 9.25627 29.1592 13.5688C30.0117 14.4313 29.294 15.7531 27.9697 15.7531Z" fill="white"/>
</g>
</svg>
