<svg width="22" height="22" viewBox="0 0 22 22" fill="none" xmlns="http://www.w3.org/2000/svg">
<g clip-path="url(#clip0_2_762)">
<path d="M6.41667 10.0833V6.41668C6.41667 5.2011 6.89955 4.03531 7.75909 3.17577C8.61864 2.31623 9.78442 1.83334 11 1.83334C12.2156 1.83334 13.3814 2.31623 14.2409 3.17577C15.1004 4.03531 15.5833 5.2011 15.5833 6.41668V10.0833M4.58333 10.0833H17.4167C18.4292 10.0833 19.25 10.9042 19.25 11.9167V18.3333C19.25 19.3459 18.4292 20.1667 17.4167 20.1667H4.58333C3.57081 20.1667 2.75 19.3459 2.75 18.3333V11.9167C2.75 10.9042 3.57081 10.0833 4.58333 10.0833Z" stroke="#1E1E1E" stroke-width="4" stroke-linecap="round" stroke-linejoin="round"/>
</g>
<defs>
<clipPath id="clip0_2_762">
<rect width="22" height="22" fill="white"/>
</clipPath>
</defs>
</svg>
