<svg width="30" height="30" viewBox="0 0 30 30" fill="none" xmlns="http://www.w3.org/2000/svg">
<mask id="mask0_19_490" style="mask-type:luminance" maskUnits="userSpaceOnUse" x="0" y="0" width="30" height="30">
<path d="M0 0H30V30H0V0Z" fill="white"/>
</mask>
<g mask="url(#mask0_19_490)">
<path d="M29.4125 29.8937H0.487512C0.225012 29.8937 0.0125122 29.6812 0.0125122 29.4187V26.7187C0.0125122 22.2219 3.66876 18.5656 8.16564 18.5656H21.7344C26.2281 18.5656 29.8875 22.2219 29.8875 26.7187V29.4187C29.8875 29.6812 29.675 29.8937 29.4125 29.8937ZM14.95 17.2906C10.1813 17.2906 6.30314 13.4125 6.30314 8.64375C6.30314 3.87812 10.1813 0 14.95 0C19.7156 0 23.5938 3.87812 23.5938 8.64375C23.5938 13.4125 19.7156 17.2906 14.95 17.2906Z" fill="white"/>
</g>
</svg>
