<svg width="30" height="30" viewBox="0 0 30 30" fill="none" xmlns="http://www.w3.org/2000/svg">
<mask id="mask0_19_256" style="mask-type:luminance" maskUnits="userSpaceOnUse" x="3" y="25" width="24" height="5">
<path d="M3.18182 25.2593H26.8182V30H3.18182V25.2593Z" fill="white"/>
</mask>
<g mask="url(#mask0_19_256)">
<path d="M24.2259 25.2593H5.76705C4.5135 25.2593 3.49432 26.1562 3.49432 27.2593V29.7031H26.4986V27.2593C26.4986 26.1562 25.4794 25.2593 24.2259 25.2593Z" fill="white"/>
</g>
<path d="M19.3253 22.3094H10.6676C9.41403 22.3094 8.39841 23.2063 8.39841 24.3095V24.7157H21.5944V24.3095C21.5944 23.2063 20.5788 22.3094 19.3253 22.3094Z" fill="white"/>
<mask id="mask1_19_256" style="mask-type:luminance" maskUnits="userSpaceOnUse" x="0" y="2" width="30" height="21">
<path d="M0 2.05945H30V22.0595H0V2.05945Z" fill="white"/>
</mask>
<g mask="url(#mask1_19_256)">
<path d="M24.304 11.3157C24.9574 9.25942 25.3729 7.16879 25.5078 5.02817H28.6541C28.1179 7.62817 26.5234 9.6313 24.304 11.3157ZM17.674 10.5469L18.3203 13.7719L15.0142 12.2594L11.7259 13.8001L12.3402 10.5657L9.66264 8.28755L13.3452 7.80005L14.9787 4.85629L16.6406 7.79067L20.3303 8.24692L17.674 10.5469ZM1.35653 5.03442H4.48153C4.62358 7.16879 5.02841 9.25942 5.74219 11.3407C3.85298 10.3344 1.67258 7.18129 1.35653 5.03442ZM29.1868 3.91566C28.576 3.91254 27.9688 3.91566 27.3544 3.91566H25.5966V2.40629C25.5966 2.36254 25.5966 2.32504 25.593 2.28754H4.3963C4.3963 2.31879 4.39275 2.35004 4.39275 2.38129V3.91566H3.98792C2.92258 3.91566 1.85724 3.91254 0.788349 3.91566C0.227269 3.91566 0.00354819 4.10629 0.0319573 4.60317C0.0923264 5.66567 0.436787 6.66879 0.919741 7.6313C2.08451 9.94692 3.96662 11.7219 6.27841 13.1813C6.48082 13.3094 6.69744 13.4688 6.80753 13.6563C7.94389 15.5594 9.40341 17.1626 11.7116 18.0094V21.7876H18.3239V18.1157C18.3274 18.1157 18.3274 18.1126 18.331 18.1094C18.37 18.0969 19.4744 17.7469 20.8274 16.5501C20.8771 16.5094 20.9197 16.4626 20.9695 16.4219C21.005 16.3876 21.0369 16.3626 21.0724 16.3251C21.8821 15.5938 22.532 14.7282 23.1001 13.8001C23.2386 13.5688 23.4517 13.3501 23.6932 13.2001C25.7884 11.8719 27.5497 10.2813 28.7393 8.24067C29.4034 7.10317 29.8615 5.90942 29.9574 4.62504C29.9964 4.10629 29.7692 3.91566 29.1868 3.91566Z" fill="white"/>
</g>
<mask id="mask2_19_256" style="mask-type:luminance" maskUnits="userSpaceOnUse" x="3" y="0" width="24" height="3">
<path d="M3.18182 0H26.8182V2.05938H3.18182V0Z" fill="white"/>
</mask>
<g mask="url(#mask2_19_256)">
<path d="M4.06962 1.65316H25.9695C26.25 1.65316 26.4808 1.38754 26.4808 1.05629V0.606288C26.4808 0.275037 26.25 0.00628662 25.9695 0.00628662H4.06962C3.78553 0.00628662 3.55826 0.275037 3.55826 0.606288V1.05629C3.55826 1.38754 3.78553 1.65316 4.06962 1.65316Z" fill="white"/>
</g>
</svg>
