<svg width="266" height="81" viewBox="0 0 266 81" fill="none" xmlns="http://www.w3.org/2000/svg">
<path d="M8.15531 48L0.745313 1.2H14.2653L16.4753 29.8L21.8703 7.57H32.0103L37.4703 29.995L39.6153 1.2H53.1353L45.7253 48H33.3103L27.0703 20.44L20.5703 48H8.15531ZM54.416 1.2H85.551L83.601 11.6H70.666V18.75H82.821L80.871 29.15H70.666V37.6H86.006L84.056 48H57.991V10.105L54.416 1.2ZM89.9045 1.2H102.579V36.95H116.944L114.929 48H89.9045V1.2ZM117.288 24.925C117.288 18.7717 118.003 13.94 119.433 10.43C120.863 6.87667 123.008 4.36333 125.868 2.89C128.772 1.41666 132.368 0.679997 136.658 0.679997C138.045 0.679997 139.627 0.766664 141.403 0.939998C143.223 1.07 144.978 1.33 146.668 1.72V18.88H138.803L137.763 11.015C136.593 11.015 135.575 11.1667 134.708 11.47C133.885 11.73 133.192 12.315 132.628 13.225C132.065 14.135 131.632 15.5217 131.328 17.385C131.068 19.2483 130.938 21.74 130.938 24.86C130.938 28.24 131.307 30.905 132.043 32.855C132.78 34.7617 133.885 36.1267 135.358 36.95C136.875 37.73 138.803 38.12 141.143 38.12C142.183 38.12 143.18 38.055 144.133 37.925C145.087 37.795 146.105 37.6433 147.188 37.47V47.74C145.932 48.0433 144.415 48.26 142.638 48.39C140.862 48.5633 139.28 48.65 137.893 48.65C130.483 48.65 125.197 46.6567 122.033 42.67C118.87 38.6833 117.288 32.7683 117.288 24.925ZM167.533 48.65C163.287 48.65 159.863 47.935 157.263 46.505C154.663 45.0317 152.757 42.5617 151.543 39.095C150.373 35.585 149.788 30.775 149.788 24.665C149.788 18.555 150.373 13.7667 151.543 10.3C152.757 6.79 154.663 4.32 157.263 2.89C159.863 1.41666 163.287 0.679997 167.533 0.679997C171.78 0.679997 175.203 1.41666 177.803 2.89C180.403 4.32 182.288 6.79 183.458 10.3C184.672 13.7667 185.278 18.555 185.278 24.665C185.278 30.775 184.672 35.585 183.458 39.095C182.288 42.5617 180.403 45.0317 177.803 46.505C175.203 47.935 171.78 48.65 167.533 48.65ZM171.628 24.535C171.628 20.8083 171.498 17.97 171.238 16.02C171.022 14.0267 170.61 12.6617 170.003 11.925C169.44 11.145 168.617 10.755 167.533 10.755C166.493 10.755 165.67 11.145 165.063 11.925C164.457 12.6617 164.023 14.0267 163.763 16.02C163.547 17.97 163.438 20.8083 163.438 24.535C163.438 28.2183 163.547 31.0783 163.763 33.115C164.023 35.1517 164.457 36.5817 165.063 37.405C165.67 38.185 166.493 38.575 167.533 38.575C168.617 38.575 169.44 38.185 170.003 37.405C170.61 36.5817 171.022 35.1517 171.238 33.115C171.498 31.0783 171.628 28.2183 171.628 24.535ZM207.061 38.38L201.341 24.73V48H188.991V10.105L185.416 1.2H200.886L209.986 20.765L219.086 1.2H231.046V48H218.696V24.86L212.976 38.38H207.061ZM233.991 1.2H265.126L263.176 11.6H250.241V18.75H262.396L260.446 29.15H250.241V37.6H265.581L263.631 48H237.566V10.105L233.991 1.2Z" fill="#64AD16"/>
<path d="M35.1128 57.525H37.6628V72.875H46.5128V75H35.1128V57.525ZM54.3593 75.375C52.1426 75.375 50.4009 74.825 49.1343 73.725C47.8843 72.6083 47.2593 71.0417 47.2593 69.025C47.2593 67.0583 47.8176 65.5 48.9343 64.35C50.0676 63.2 51.6759 62.625 53.7593 62.625C55.1426 62.625 56.3176 62.8917 57.2843 63.425C58.2509 63.9417 58.9759 64.6667 59.4593 65.6C59.9593 66.5167 60.2093 67.5667 60.2093 68.75V70H49.6593C49.7426 71.1333 50.2176 71.9833 51.0843 72.55C51.9676 73.1 53.1593 73.375 54.6593 73.375C55.4259 73.375 56.2009 73.3083 56.9843 73.175C57.7676 73.025 58.4593 72.8333 59.0593 72.6V74.625C58.5259 74.8417 57.8176 75.0167 56.9343 75.15C56.0676 75.3 55.2093 75.375 54.3593 75.375ZM57.8343 68.225C57.8009 67.0917 57.4259 66.2167 56.7093 65.6C56.0093 64.9667 55.0093 64.65 53.7093 64.65C52.4426 64.65 51.4593 64.975 50.7593 65.625C50.0593 66.275 49.6926 67.1417 49.6593 68.225H57.8343ZM67.5942 75.375C66.3776 75.375 65.4359 75.025 64.7692 74.325C64.1192 73.625 63.7942 72.6333 63.7942 71.35V64.95H61.9692V63H63.7942V59.4H66.3442V63H69.2942V64.95H66.3442V71.175C66.3442 71.975 66.4942 72.5417 66.7942 72.875C67.1109 73.2083 67.6776 73.375 68.4942 73.375C68.9776 73.375 69.4609 73.2667 69.9442 73.05V75.05C69.3109 75.2667 68.5276 75.375 67.5942 75.375ZM72.8351 57.15H75.3351L73.3601 62.025H71.1851L72.8351 57.15ZM81.6276 75.375C80.7943 75.375 79.911 75.2667 78.9776 75.05C78.0443 74.85 77.311 74.575 76.7776 74.225V72.075C77.4276 72.4583 78.1776 72.775 79.0276 73.025C79.8776 73.2583 80.7026 73.375 81.5026 73.375C82.4026 73.375 83.061 73.2667 83.4776 73.05C83.8943 72.8333 84.1026 72.4833 84.1026 72C84.1026 71.6333 84.0026 71.3417 83.8026 71.125C83.6193 70.8917 83.2943 70.6833 82.8276 70.5C82.3776 70.3167 81.6943 70.1 80.7776 69.85C79.7943 69.5667 79.011 69.2833 78.4276 69C77.861 68.7 77.4276 68.325 77.1276 67.875C76.8443 67.425 76.7026 66.8417 76.7026 66.125C76.7026 64.975 77.1526 64.1083 78.0526 63.525C78.9693 62.925 80.1943 62.625 81.7276 62.625C82.5276 62.625 83.311 62.7 84.0776 62.85C84.8443 63 85.461 63.2083 85.9276 63.475V65.575C85.4443 65.2917 84.8443 65.0667 84.1276 64.9C83.4276 64.7333 82.711 64.65 81.9776 64.65C81.0943 64.65 80.4193 64.7583 79.9526 64.975C79.486 65.1917 79.2526 65.575 79.2526 66.125C79.2526 66.475 79.3526 66.7583 79.5526 66.975C79.7526 67.1917 80.0693 67.3833 80.5026 67.55C80.9526 67.7 81.661 67.9 82.6276 68.15C84.1443 68.5667 85.1943 69.0583 85.7776 69.625C86.3776 70.1917 86.6776 70.975 86.6776 71.975C86.6776 73.0083 86.2526 73.8333 85.4026 74.45C84.5526 75.0667 83.2943 75.375 81.6276 75.375ZM104.962 80.75C104.145 80.75 103.345 80.6833 102.562 80.55C101.795 80.4167 101.145 80.225 100.612 79.975V77.9C101.862 78.4667 103.312 78.75 104.962 78.75C106.512 78.75 107.637 78.4083 108.337 77.725C109.054 77.0583 109.412 76.0417 109.412 74.675V73.4C108.312 74.7167 106.695 75.375 104.562 75.375C103.345 75.375 102.254 75.1083 101.287 74.575C100.32 74.0417 99.562 73.2917 99.012 72.325C98.462 71.3583 98.187 70.25 98.187 69C98.187 67.7333 98.4537 66.625 98.987 65.675C99.537 64.7083 100.287 63.9583 101.237 63.425C102.204 62.8917 103.287 62.625 104.487 62.625C105.604 62.625 106.545 62.7917 107.312 63.125C108.095 63.4417 108.82 63.975 109.487 64.725V63H111.937V74.4C111.937 76.45 111.362 78.0167 110.212 79.1C109.079 80.2 107.329 80.75 104.962 80.75ZM105.062 73.375C106.095 73.375 107.004 73.1 107.787 72.55C108.587 72 109.129 71.2667 109.412 70.35V67.65C109.095 66.7167 108.545 65.9833 107.762 65.45C106.995 64.9167 106.095 64.65 105.062 64.65C104.245 64.65 103.504 64.8333 102.837 65.2C102.187 65.55 101.67 66.0583 101.287 66.725C100.92 67.3917 100.737 68.15 100.737 69C100.737 69.8667 100.92 70.6333 101.287 71.3C101.67 71.95 102.187 72.4583 102.837 72.825C103.504 73.1917 104.245 73.375 105.062 73.375ZM121.791 75.375C119.574 75.375 117.833 74.825 116.566 73.725C115.316 72.6083 114.691 71.0417 114.691 69.025C114.691 67.0583 115.249 65.5 116.366 64.35C117.499 63.2 119.108 62.625 121.191 62.625C122.574 62.625 123.749 62.8917 124.716 63.425C125.683 63.9417 126.408 64.6667 126.891 65.6C127.391 66.5167 127.641 67.5667 127.641 68.75V70H117.091C117.174 71.1333 117.649 71.9833 118.516 72.55C119.399 73.1 120.591 73.375 122.091 73.375C122.858 73.375 123.633 73.3083 124.416 73.175C125.199 73.025 125.891 72.8333 126.491 72.6V74.625C125.958 74.8417 125.249 75.0167 124.366 75.15C123.499 75.3 122.641 75.375 121.791 75.375ZM125.266 68.225C125.233 67.0917 124.858 66.2167 124.141 65.6C123.441 64.9667 122.441 64.65 121.141 64.65C119.874 64.65 118.891 64.975 118.191 65.625C117.491 66.275 117.124 67.1417 117.091 68.225H125.266ZM135.026 75.375C133.809 75.375 132.868 75.025 132.201 74.325C131.551 73.625 131.226 72.6333 131.226 71.35V64.95H129.401V63H131.226V59.4H133.776V63H136.726V64.95H133.776V71.175C133.776 71.975 133.926 72.5417 134.226 72.875C134.543 73.2083 135.109 73.375 135.926 73.375C136.409 73.375 136.893 73.2667 137.376 73.05V75.05C136.743 75.2667 135.959 75.375 135.026 75.375ZM153.429 75.375C152.596 75.375 151.713 75.2667 150.779 75.05C149.846 74.85 149.113 74.575 148.579 74.225V72.075C149.229 72.4583 149.979 72.775 150.829 73.025C151.679 73.2583 152.504 73.375 153.304 73.375C154.204 73.375 154.863 73.2667 155.279 73.05C155.696 72.8333 155.904 72.4833 155.904 72C155.904 71.6333 155.804 71.3417 155.604 71.125C155.421 70.8917 155.096 70.6833 154.629 70.5C154.179 70.3167 153.496 70.1 152.579 69.85C151.596 69.5667 150.813 69.2833 150.229 69C149.663 68.7 149.229 68.325 148.929 67.875C148.646 67.425 148.504 66.8417 148.504 66.125C148.504 64.975 148.954 64.1083 149.854 63.525C150.771 62.925 151.996 62.625 153.529 62.625C154.329 62.625 155.113 62.7 155.879 62.85C156.646 63 157.263 63.2083 157.729 63.475V65.575C157.246 65.2917 156.646 65.0667 155.929 64.9C155.229 64.7333 154.513 64.65 153.779 64.65C152.896 64.65 152.221 64.7583 151.754 64.975C151.288 65.1917 151.054 65.575 151.054 66.125C151.054 66.475 151.154 66.7583 151.354 66.975C151.554 67.1917 151.871 67.3833 152.304 67.55C152.754 67.7 153.463 67.9 154.429 68.15C155.946 68.5667 156.996 69.0583 157.579 69.625C158.179 70.1917 158.479 70.975 158.479 71.975C158.479 73.0083 158.054 73.8333 157.204 74.45C156.354 75.0667 155.096 75.375 153.429 75.375ZM165.495 75.375C164.278 75.375 163.336 75.025 162.67 74.325C162.02 73.625 161.695 72.6333 161.695 71.35V64.95H159.87V63H161.695V59.4H164.245V63H167.195V64.95H164.245V71.175C164.245 71.975 164.395 72.5417 164.695 72.875C165.011 73.2083 165.578 73.375 166.395 73.375C166.878 73.375 167.361 73.2667 167.845 73.05V75.05C167.211 75.2667 166.428 75.375 165.495 75.375ZM174.154 75.375C172.704 75.375 171.537 75.0083 170.654 74.275C169.787 73.525 169.354 72.5167 169.354 71.25C169.354 69.9167 169.771 68.8917 170.604 68.175C171.454 67.4417 172.654 67.075 174.204 67.075C175.854 67.075 177.254 67.4083 178.404 68.075V67.45C178.404 66.5 178.112 65.8 177.529 65.35C176.962 64.8833 176.062 64.65 174.829 64.65C174.096 64.65 173.379 64.725 172.679 64.875C171.996 65.0083 171.379 65.2 170.829 65.45V63.4C171.329 63.1667 171.979 62.9833 172.779 62.85C173.579 62.7 174.354 62.625 175.104 62.625C177.087 62.625 178.554 63.0667 179.504 63.95C180.471 64.8167 180.954 66.025 180.954 67.575V75H178.579V73.65C178.062 74.2167 177.446 74.65 176.729 74.95C176.029 75.2333 175.171 75.375 174.154 75.375ZM174.779 73.45C175.579 73.45 176.304 73.2917 176.954 72.975C177.604 72.6583 178.087 72.2167 178.404 71.65V70.025C177.321 69.325 176.112 68.975 174.779 68.975C173.812 68.975 173.087 69.1667 172.604 69.55C172.137 69.9167 171.904 70.4833 171.904 71.25C171.904 72.7167 172.862 73.45 174.779 73.45ZM184.087 63H186.537V65.15C187.037 64.4167 187.737 63.875 188.637 63.525C189.554 63.175 190.612 63 191.812 63V64.975C190.529 64.975 189.429 65.1833 188.512 65.6C187.596 66.0167 186.962 66.675 186.612 67.575V75H184.087V63ZM198.698 75.375C197.481 75.375 196.539 75.025 195.873 74.325C195.223 73.625 194.898 72.6333 194.898 71.35V64.95H193.073V63H194.898V59.4H197.448V63H200.398V64.95H197.448V71.175C197.448 71.975 197.598 72.5417 197.898 72.875C198.214 73.2083 198.781 73.375 199.598 73.375C200.081 73.375 200.564 73.2667 201.048 73.05V75.05C200.414 75.2667 199.631 75.375 198.698 75.375ZM210.023 75.375C207.807 75.375 206.065 74.825 204.798 73.725C203.548 72.6083 202.923 71.0417 202.923 69.025C202.923 67.0583 203.482 65.5 204.598 64.35C205.732 63.2 207.34 62.625 209.423 62.625C210.807 62.625 211.982 62.8917 212.948 63.425C213.915 63.9417 214.64 64.6667 215.123 65.6C215.623 66.5167 215.873 67.5667 215.873 68.75V70H205.323C205.407 71.1333 205.882 71.9833 206.748 72.55C207.632 73.1 208.823 73.375 210.323 73.375C211.09 73.375 211.865 73.3083 212.648 73.175C213.432 73.025 214.123 72.8333 214.723 72.6V74.625C214.19 74.8417 213.482 75.0167 212.598 75.15C211.732 75.3 210.873 75.375 210.023 75.375ZM213.498 68.225C213.465 67.0917 213.09 66.2167 212.373 65.6C211.673 64.9667 210.673 64.65 209.373 64.65C208.107 64.65 207.123 64.975 206.423 65.625C205.723 66.275 205.357 67.1417 205.323 68.225H213.498ZM224.433 75.375C223.233 75.375 222.15 75.1167 221.183 74.6C220.233 74.0667 219.483 73.325 218.933 72.375C218.4 71.4083 218.133 70.2917 218.133 69.025C218.133 67.775 218.4 66.6667 218.933 65.7C219.483 64.7333 220.233 63.9833 221.183 63.45C222.15 62.9 223.233 62.625 224.433 62.625C226.6 62.625 228.242 63.2833 229.358 64.6V56.525H231.883V75H229.433V73.25C228.767 73.9833 228.033 74.525 227.233 74.875C226.45 75.2083 225.517 75.375 224.433 75.375ZM225.008 73.375C226.042 73.375 226.942 73.1083 227.708 72.575C228.492 72.025 229.042 71.2917 229.358 70.375V67.675C229.075 66.7583 228.533 66.025 227.733 65.475C226.95 64.925 226.042 64.65 225.008 64.65C224.192 64.65 223.45 64.8333 222.783 65.2C222.133 65.5667 221.617 66.0833 221.233 66.75C220.867 67.4167 220.683 68.175 220.683 69.025C220.683 69.875 220.867 70.6333 221.233 71.3C221.617 71.9667 222.133 72.4833 222.783 72.85C223.45 73.2 224.192 73.375 225.008 73.375Z" fill="black"/>
</svg>
